<?xml version="1.0" encoding="utf-8"?>
<!-- Generated by IcoMoon.io -->
<!DOCTYPE svg PUBLIC "-//W3C//DTD SVG 1.1//EN" "http://www.w3.org/Graphics/SVG/1.1/DTD/svg11.dtd">
<svg version="1.1" xmlns="http://www.w3.org/2000/svg" xmlns:xlink="http://www.w3.org/1999/xlink" width="27" height="32" viewBox="0 0 27 32">
<path fill="#444444" d="M12.8 9.8v20.574c-6.254-0.412-11.2-5.615-11.2-11.974 0-0.442-0.358-0.8-0.8-0.8s-0.8 0.358-0.8 0.8c0 7.243 5.661 13.163 12.8 13.577v0.023h1.6v-0.023c7.139-0.414 12.8-6.334 12.8-13.577 0-0.442-0.358-0.8-0.8-0.8s-0.8 0.358-0.8 0.8c0 6.359-4.946 11.562-11.2 11.974v0-20.574h6.4c0.442 0 0.8-0.358 0.8-0.8s-0.358-0.8-0.8-0.8h-6.4v-3.4h-1.6v3.4h-6.4c-0.442 0-0.8 0.358-0.8 0.8s0.358 0.8 0.8 0.8h6.4z"></path>
<path fill="#444444" d="M13.6 6.4c1.767 0 3.2-1.433 3.2-3.2s-1.433-3.2-3.2-3.2c-1.767 0-3.2 1.433-3.2 3.2s1.433 3.2 3.2 3.2v0 0zM13.6 4.8c-0.884 0-1.6-0.716-1.6-1.6s0.716-1.6 1.6-1.6c0.884 0 1.6 0.716 1.6 1.6s-0.716 1.6-1.6 1.6v0 0z"></path>
</svg>
